<svg width="39" height="35" viewBox="0 0 39 35" fill="none" xmlns="http://www.w3.org/2000/svg">
<g clip-path="url(#clip0_1_333)">
<path d="M19.5 9.84375C18.7823 9.85507 18.07 9.97018 17.3848 10.1855C17.7017 10.7484 17.8705 11.3838 17.875 12.0312C17.875 12.534 17.7769 13.0318 17.5863 13.4962C17.3958 13.9607 17.1165 14.3827 16.7644 14.7381C16.4123 15.0936 15.9943 15.3756 15.5343 15.568C15.0743 15.7604 14.5812 15.8594 14.0833 15.8594C13.442 15.8549 12.8126 15.6845 12.2552 15.3645C11.8154 16.9044 11.8666 18.5451 12.4017 20.0541C12.9368 21.563 13.9285 22.8637 15.2365 23.772C16.5444 24.6803 18.1023 25.15 19.6894 25.1147C21.2765 25.0794 22.8123 24.5408 24.0794 23.5753C25.3465 22.6098 26.2805 21.2662 26.7493 19.7349C27.218 18.2037 27.1976 16.5623 26.6911 15.0433C26.1845 13.5244 25.2174 12.2049 23.9268 11.2717C22.6362 10.3385 21.0874 9.83891 19.5 9.84375V9.84375ZM38.7643 16.502C35.0925 9.26885 27.8233 4.375 19.5 4.375C11.1766 4.375 3.90538 9.27227 0.235588 16.5026C0.0806997 16.812 0 17.1537 0 17.5003C0 17.847 0.0806997 18.1887 0.235588 18.498C3.90741 25.7312 11.1766 30.625 19.5 30.625C27.8233 30.625 35.0945 25.7277 38.7643 18.4974C38.9192 18.188 38.9999 17.8463 38.9999 17.4997C38.9999 17.153 38.9192 16.8113 38.7643 16.502V16.502ZM19.5 27.3438C12.8205 27.3438 6.69699 23.584 3.39012 17.5C6.69699 11.416 12.8199 7.65625 19.5 7.65625C26.1801 7.65625 32.3029 11.416 35.6098 17.5C32.3036 23.584 26.1801 27.3438 19.5 27.3438Z" fill="#7D849A"/>
</g>
<defs>
<clipPath id="clip0_1_333">
<rect width="39" height="35" fill="white"/>
</clipPath>
</defs>
</svg>
