<svg width="40" height="40" viewBox="0 0 40 40" fill="none" xmlns="http://www.w3.org/2000/svg">
<g clip-path="url(#clip0_2_104)">
<path d="M39.3744 8.2322C38.8378 7.5683 38.0403 7.1876 37.1866 7.1876H6.69816L6.4259 5.23636C6.23309 3.85465 5.0356 2.81262 3.64037 2.81262H1.24999C0.559684 2.81262 0 3.37231 0 4.06261C0 4.75292 0.559684 5.31261 1.24999 5.31261H3.64037C3.79537 5.31261 3.92849 5.42839 3.94982 5.5819L7.32394 29.7637C7.51675 31.1455 8.71425 32.1875 10.1095 32.1875H11.4649C11.3261 32.5787 11.2499 32.9992 11.2499 33.4374C11.2499 35.5052 12.9321 37.1874 14.9998 37.1874C17.0676 37.1874 18.7498 35.5052 18.7498 33.4374C18.7498 32.9992 18.6736 32.5787 18.5348 32.1875H25.2148C25.076 32.5787 24.9998 32.9992 24.9998 33.4374C24.9998 35.5052 26.682 37.1874 28.7498 37.1874C30.8175 37.1874 32.4997 35.5052 32.4997 33.4374C32.4997 32.9992 32.4235 32.5787 32.2847 32.1875H34.9998C35.6901 32.1875 36.2498 31.6278 36.2498 30.9375C36.2498 30.2472 35.6901 29.6875 34.9998 29.6875H10.1096C9.95455 29.6875 9.82143 29.5717 9.8001 29.4182L9.48885 27.1875H34.1061C35.4231 27.1875 36.5797 26.2527 36.8564 24.9642L39.9368 10.5895C40.1158 9.75508 39.9108 8.89587 39.3744 8.2322ZM16.2499 33.4374C16.2499 34.1267 15.6891 34.6874 14.9999 34.6874C14.3107 34.6874 13.7499 34.1267 13.7499 33.4374C13.7499 32.7482 14.3107 32.1875 14.9999 32.1875C15.6891 32.1875 16.2499 32.7482 16.2499 33.4374ZM29.9998 33.4374C29.9998 34.1267 29.439 34.6874 28.7498 34.6874C28.0606 34.6874 27.4998 34.1267 27.4998 33.4374C27.4998 32.7482 28.0606 32.1875 28.7498 32.1875C29.439 32.1875 29.9998 32.7482 29.9998 33.4374ZM37.4924 10.0655L34.4121 24.4398C34.3813 24.5833 34.2525 24.6874 34.1061 24.6874H9.13995L7.04699 9.6875H37.1865C37.3102 9.6875 37.3872 9.75063 37.43 9.8036C37.4728 9.85649 37.5182 9.94485 37.4924 10.0655Z" fill="white"/>
</g>
<defs>
<clipPath id="clip0_2_104">
<rect width="40" height="40" fill="white"/>
</clipPath>
</defs>
</svg>
