<svg width="44" height="35" viewBox="0 0 44 35" fill="none" xmlns="http://www.w3.org/2000/svg">
<g clip-path="url(#clip0_1_329)">
<path d="M43.5872 32.1973L2.4747 0.239934C2.36193 0.150163 2.23249 0.0833559 2.09376 0.0433264C1.95503 0.00329685 1.80972 -0.00917089 1.66615 0.00663502C1.52257 0.0224409 1.38353 0.066211 1.25697 0.135446C1.1304 0.204681 1.01879 0.298025 0.928508 0.410149L0.241008 1.26396C0.150512 1.37612 0.0831479 1.50492 0.0427697 1.643C0.00239159 1.78108 -0.0102079 1.92572 0.00569229 2.06864C0.0215925 2.21156 0.0656802 2.34997 0.135433 2.47593C0.205185 2.60189 0.299233 2.71294 0.412195 2.80273L41.5247 34.7601C41.6375 34.8498 41.7669 34.9166 41.9056 34.9567C42.0444 34.9967 42.1897 35.0092 42.3332 34.9934C42.4768 34.9775 42.6159 34.9338 42.7424 34.8645C42.869 34.7953 42.9806 34.702 43.0709 34.5898L43.7584 33.736C43.8489 33.6239 43.9162 33.4951 43.9566 33.357C43.997 33.2189 44.0096 33.0743 43.9937 32.9313C43.9778 32.7884 43.9337 32.65 43.864 32.5241C43.7942 32.3981 43.7002 32.287 43.5872 32.1973V32.1973ZM20.404 10.0126L29.6708 17.2163C29.5182 13.1188 26.1577 9.84374 21.9997 9.84374C21.4633 9.84474 20.9286 9.90133 20.404 10.0126ZM23.5954 24.9881L14.3286 17.7844C14.4819 21.8811 17.8424 25.1562 21.9997 25.1562C22.536 25.1551 23.0707 25.0987 23.5954 24.9881V24.9881ZM21.9997 7.65624C28.7819 7.65624 34.9996 11.416 38.3574 17.5C37.5343 18.9973 36.5173 20.3809 35.3324 21.6152L37.927 23.6318C39.3716 22.0952 40.5955 20.3674 41.5639 18.4974C41.7212 18.188 41.8031 17.8463 41.8031 17.4997C41.8031 17.153 41.7212 16.8113 41.5639 16.5019C37.8321 9.26884 30.4511 4.37499 21.9997 4.37499C19.4766 4.37499 17.0696 4.85351 14.8064 5.66083L17.9971 8.14159C19.2992 7.84765 20.6329 7.65624 21.9997 7.65624ZM21.9997 27.3437C15.2175 27.3437 9.00044 23.584 5.64201 17.5C6.46617 16.0027 7.48434 14.6194 8.67044 13.3854L6.07582 11.3688C4.63148 12.9052 3.40782 14.6328 2.43963 16.5026C2.28236 16.812 2.20042 17.1537 2.20042 17.5003C2.20042 17.8469 2.28236 18.1887 2.43963 18.498C6.16794 25.7311 13.5489 30.625 21.9997 30.625C24.5228 30.625 26.9298 30.1431 29.193 29.3392L26.0023 26.8591C24.7002 27.1523 23.3671 27.3437 21.9997 27.3437Z" fill="#7D849A"/>
</g>
<defs>
<clipPath id="clip0_1_329">
<rect width="44" height="35" fill="white"/>
</clipPath>
</defs>
</svg>
